<svg id="svg" version="1.1" xmlns="http://www.w3.org/2000/svg" xmlns:xlink="http://www.w3.org/1999/xlink" width="400" height="403.90625" viewBox="0, 0, 400,403.90625"><g id="svgg"><path id="path0" d="M55.599 17.435 L 37.891 17.600 35.499 18.425 C 25.925 21.726,19.083 28.816,15.460 39.193 L 14.550 41.797 14.316 68.750 C 14.019 102.881,14.014 310.597,14.309 341.797 L 14.531 365.234 15.497 368.229 C 18.705 378.183,27.382 386.581,37.137 389.174 C 39.690 389.853,109.120 390.147,242.839 390.047 L 361.328 389.957 364.063 389.161 C 374.362 386.162,382.481 378.252,385.814 367.969 L 386.532 365.755 386.729 353.516 C 387.340 315.658,387.152 77.116,386.489 48.958 L 386.296 40.755 385.472 38.350 C 381.910 27.955,372.640 19.795,361.979 17.672 C 360.376 17.353,87.158 17.142,55.599 17.435 M203.385 53.274 C 210.652 53.880,215.138 54.595,222.135 56.263 C 223.926 56.689,226.204 57.228,227.198 57.460 C 230.340 58.192,241.933 61.981,245.090 63.309 C 246.758 64.010,248.255 64.583,248.416 64.583 C 249.541 64.583,263.652 71.965,269.664 75.698 C 284.551 84.943,299.799 98.973,307.079 110.124 C 309.235 113.426,308.852 113.889,303.482 114.477 C 296.452 115.247,285.955 117.630,279.688 119.878 C 274.541 121.724,270.805 123.163,269.804 123.684 C 269.296 123.949,268.306 124.369,267.603 124.619 C 260.667 127.087,243.430 136.751,228.364 146.618 C 216.821 154.178,208.091 159.115,206.267 159.115 C 206.105 159.115,205.244 159.369,204.354 159.680 C 202.082 160.474,191.657 160.687,186.722 160.040 C 163.215 156.959,133.853 143.820,105.889 123.870 C 89.223 111.981,54.688 82.384,54.688 79.991 C 54.688 79.353,55.303 79.511,58.026 80.848 C 68.387 85.933,83.874 90.134,95.273 90.953 C 96.340 91.030,96.523 90.934,98.398 89.314 C 128.776 63.087,166.351 50.188,203.385 53.274 M185.286 80.326 C 160.969 84.747,149.987 111.803,164.542 131.433 C 178.807 150.673,208.039 148.197,218.986 126.823 C 230.713 103.926,210.311 75.777,185.286 80.326 M77.650 113.477 C 78.016 113.870,78.939 115.130,79.703 116.276 C 82.516 120.498,88.972 128.779,97.176 138.689 C 111.749 156.290,118.081 164.288,122.007 170.055 C 122.781 171.191,123.904 172.739,124.504 173.495 C 128.414 178.428,137.100 192.517,141.887 201.693 C 144.633 206.957,149.763 219.375,150.101 221.577 C 150.197 222.201,150.451 223.051,150.666 223.466 C 150.881 223.882,151.458 225.891,151.948 227.931 C 159.710 260.254,151.581 289.957,128.650 313.052 C 122.292 319.454,121.298 319.970,118.539 318.294 C 96.904 305.153,71.802 278.276,61.990 257.746 C 55.213 243.569,50.832 228.240,49.704 214.762 C 49.293 209.854,49.568 188.551,50.094 184.505 C 51.772 171.608,55.067 158.689,60.487 143.750 C 63.334 135.903,70.501 121.203,74.801 114.388 C 75.978 112.522,76.585 112.328,77.650 113.477 M356.400 120.588 C 363.343 121.259,368.890 122.648,368.694 123.666 C 368.581 124.255,366.778 124.685,362.515 125.141 C 353.417 126.115,350.741 126.665,343.620 129.025 C 337.048 131.202,331.039 133.948,327.344 136.462 C 324.780 138.207,324.828 137.900,326.483 141.927 C 331.716 154.658,336.097 170.863,336.973 180.729 C 337.106 182.233,337.341 184.284,337.495 185.286 C 339.146 196.051,337.504 218.066,333.998 232.161 C 331.283 243.076,323.825 261.416,319.205 268.537 C 318.711 269.299,317.858 270.684,317.310 271.615 C 307.950 287.514,291.058 305.903,276.285 316.276 C 251.483 333.691,220.529 342.625,185.677 342.428 L 176.693 342.377 174.089 343.612 C 166.791 347.074,157.618 349.751,150.260 350.566 C 143.541 351.311,121.854 350.881,114.714 349.862 C 108.626 348.993,108.830 348.604,116.146 347.126 C 152.395 339.805,186.004 316.582,201.138 288.401 C 204.258 282.590,208.434 272.013,209.117 268.192 C 210.077 262.817,217.355 240.526,220.853 232.252 C 221.558 230.582,222.135 229.147,222.135 229.062 C 222.135 228.976,223.666 225.537,225.537 221.419 C 246.338 175.642,273.573 141.628,300.000 128.425 C 306.407 125.224,312.788 123.514,325.880 121.488 C 333.294 120.341,349.046 119.876,356.400 120.588 " stroke="none" fill="#04a4e4" fill-rule="evenodd"></path><path id="path1" d="M190.299 52.796 C 191.051 52.849,192.282 52.849,193.034 52.796 C 193.786 52.744,193.171 52.701,191.667 52.701 C 190.163 52.701,189.548 52.744,190.299 52.796 M275.246 146.549 L 274.349 147.526 275.326 146.629 C 276.234 145.793,276.422 145.573,276.223 145.573 C 276.179 145.573,275.740 146.012,275.246 146.549 M271.080 150.716 L 270.182 151.693 271.159 150.795 C 272.068 149.960,272.255 149.740,272.056 149.740 C 272.013 149.740,271.573 150.179,271.080 150.716 M296.468 298.503 L 295.703 299.349 296.549 298.584 C 297.338 297.871,297.516 297.656,297.314 297.656 C 297.270 297.656,296.889 298.037,296.468 298.503 M291.780 303.190 L 291.016 304.036 291.862 303.272 C 292.651 302.559,292.828 302.344,292.627 302.344 C 292.582 302.344,292.201 302.725,291.780 303.190 " stroke="none" fill="#0face4" fill-rule="evenodd"></path><path id="path2" d="M147.482 17.122 C 179.541 17.159,231.924 17.159,263.888 17.122 C 295.853 17.086,269.622 17.056,205.599 17.056 C 141.576 17.056,115.423 17.086,147.482 17.122 M52.539 17.383 C 56.299 17.423,62.451 17.423,66.211 17.383 C 69.971 17.342,66.895 17.309,59.375 17.309 C 51.855 17.309,48.779 17.342,52.539 17.383 M341.880 17.383 C 344.933 17.424,349.855 17.424,352.817 17.382 C 355.779 17.341,353.281 17.307,347.266 17.307 C 341.250 17.307,338.826 17.341,341.880 17.383 M38.731 17.636 C 39.193 17.693,40.014 17.694,40.554 17.638 C 41.094 17.582,40.716 17.535,39.714 17.533 C 38.711 17.532,38.269 17.578,38.731 17.636 M361.263 17.627 C 361.514 17.693,361.924 17.693,362.174 17.627 C 362.425 17.562,362.220 17.508,361.719 17.508 C 361.217 17.508,361.012 17.562,361.263 17.627 M22.778 26.367 L 21.224 27.995 22.852 26.440 C 24.363 24.997,24.598 24.740,24.406 24.740 C 24.366 24.740,23.633 25.472,22.778 26.367 M377.995 26.302 C 378.845 27.161,379.600 27.865,379.671 27.865 C 379.743 27.865,379.106 27.161,378.255 26.302 C 377.405 25.443,376.650 24.740,376.579 24.740 C 376.507 24.740,377.144 25.443,377.995 26.302 M383.775 34.242 C 384.013 34.741,384.254 35.103,384.311 35.047 C 384.430 34.928,383.639 33.333,383.461 33.333 C 383.395 33.333,383.537 33.742,383.775 34.242 M14.429 46.484 C 14.429 48.919,14.468 49.950,14.516 48.776 C 14.565 47.601,14.565 45.609,14.517 44.349 C 14.469 43.088,14.430 44.049,14.429 46.484 M386.569 48.698 C 386.569 51.777,386.607 53.037,386.653 51.497 C 386.699 49.958,386.699 47.438,386.653 45.898 C 386.607 44.359,386.569 45.618,386.569 48.698 M184.444 53.051 C 184.840 53.111,185.425 53.110,185.746 53.048 C 186.066 52.986,185.742 52.937,185.026 52.939 C 184.310 52.941,184.048 52.992,184.444 53.051 M196.940 53.054 C 197.477 53.110,198.356 53.110,198.893 53.054 C 199.430 52.998,198.991 52.952,197.917 52.952 C 196.842 52.952,196.403 52.998,196.940 53.054 M180.794 53.305 C 181.045 53.370,181.455 53.370,181.706 53.305 C 181.956 53.239,181.751 53.185,181.250 53.185 C 180.749 53.185,180.544 53.239,180.794 53.305 M201.371 53.312 C 201.767 53.372,202.353 53.370,202.673 53.308 C 202.993 53.247,202.669 53.198,201.953 53.199 C 201.237 53.201,200.975 53.252,201.371 53.312 M178.190 53.565 C 178.441 53.630,178.851 53.630,179.102 53.565 C 179.352 53.499,179.147 53.446,178.646 53.446 C 178.145 53.446,177.939 53.499,178.190 53.565 M204.622 53.569 C 204.945 53.631,205.472 53.631,205.794 53.569 C 206.117 53.507,205.853 53.456,205.208 53.456 C 204.564 53.456,204.300 53.507,204.622 53.569 M207.230 53.830 C 207.554 53.892,208.022 53.890,208.271 53.825 C 208.520 53.760,208.255 53.709,207.682 53.712 C 207.109 53.714,206.906 53.768,207.230 53.830 M209.701 54.086 C 209.951 54.151,210.361 54.151,210.612 54.086 C 210.863 54.020,210.658 53.967,210.156 53.967 C 209.655 53.967,209.450 54.020,209.701 54.086 M14.184 71.484 C 14.184 79.648,14.217 82.951,14.258 78.823 C 14.298 74.695,14.298 68.015,14.258 63.979 C 14.217 59.943,14.184 63.320,14.184 71.484 M386.840 75.000 C 386.840 82.949,386.873 86.201,386.914 82.227 C 386.954 78.252,386.954 71.748,386.914 67.773 C 386.873 63.799,386.840 67.051,386.840 75.000 M130.924 67.725 C 129.814 68.292,128.906 68.815,128.906 68.886 C 128.906 68.958,129.844 68.545,130.990 67.969 C 132.135 67.393,133.073 66.864,133.073 66.794 C 133.073 66.619,133.170 66.576,130.924 67.725 M256.011 68.328 C 256.277 68.570,258.854 69.787,258.854 69.670 C 258.854 69.523,256.367 68.229,256.085 68.229 C 255.985 68.229,255.952 68.274,256.011 68.328 M188.997 79.880 C 189.893 79.931,191.357 79.931,192.253 79.880 C 193.148 79.829,192.415 79.788,190.625 79.788 C 188.835 79.788,188.102 79.829,188.997 79.880 M276.042 80.043 C 276.042 80.114,276.393 80.423,276.823 80.729 C 277.253 81.035,277.604 81.227,277.604 81.155 C 277.604 81.084,277.253 80.775,276.823 80.469 C 276.393 80.163,276.042 79.971,276.042 80.043 M58.854 84.505 C 60.497 86.152,61.899 87.500,61.971 87.500 C 62.042 87.500,60.757 86.152,59.115 84.505 C 57.472 82.858,56.070 81.510,55.998 81.510 C 55.926 81.510,57.212 82.858,58.854 84.505 M278.906 82.114 C 278.906 82.177,279.580 82.735,280.404 83.353 C 281.227 83.971,281.760 84.302,281.587 84.088 C 281.234 83.649,278.906 81.936,278.906 82.114 M211.458 88.151 C 211.944 88.652,212.400 89.063,212.472 89.063 C 212.544 89.063,212.205 88.652,211.719 88.151 C 211.233 87.650,210.777 87.240,210.705 87.240 C 210.634 87.240,210.972 87.650,211.458 88.151 M167.048 89.648 L 165.755 91.016 167.122 89.723 C 168.393 88.523,168.609 88.281,168.415 88.281 C 168.373 88.281,167.758 88.896,167.048 89.648 M64.312 89.648 C 64.951 90.329,65.507 90.885,65.549 90.885 C 65.745 90.885,65.538 90.652,64.388 89.572 L 63.151 88.411 64.312 89.648 M288.281 89.714 C 288.767 90.215,289.223 90.625,289.295 90.625 C 289.366 90.625,289.028 90.215,288.542 89.714 C 288.056 89.212,287.600 88.802,287.528 88.802 C 287.456 88.802,287.795 89.212,288.281 89.714 M91.211 90.805 C 91.462 90.870,91.872 90.870,92.122 90.805 C 92.373 90.739,92.168 90.685,91.667 90.685 C 91.165 90.685,90.960 90.739,91.211 90.805 M94.079 91.072 C 94.475 91.132,95.061 91.131,95.381 91.069 C 95.701 91.007,95.378 90.958,94.661 90.960 C 93.945 90.962,93.683 91.012,94.079 91.072 M291.276 92.448 C 291.981 93.164,292.617 93.750,292.689 93.750 C 292.760 93.750,292.242 93.164,291.536 92.448 C 290.831 91.732,290.195 91.146,290.124 91.146 C 290.052 91.146,290.571 91.732,291.276 92.448 M67.318 92.448 C 67.877 93.021,68.393 93.490,68.465 93.490 C 68.537 93.490,68.138 93.021,67.578 92.448 C 67.019 91.875,66.502 91.406,66.431 91.406 C 66.359 91.406,66.758 91.875,67.318 92.448 M69.792 94.661 C 70.278 95.163,70.734 95.573,70.805 95.573 C 70.877 95.573,70.538 95.163,70.052 94.661 C 69.566 94.160,69.110 93.750,69.038 93.750 C 68.967 93.750,69.306 94.160,69.792 94.661 M71.875 96.484 C 72.361 96.986,72.817 97.396,72.889 97.396 C 72.960 97.396,72.621 96.986,72.135 96.484 C 71.650 95.983,71.193 95.573,71.122 95.573 C 71.050 95.573,71.389 95.983,71.875 96.484 M73.958 98.307 C 74.444 98.809,74.900 99.219,74.972 99.219 C 75.044 99.219,74.705 98.809,74.219 98.307 C 73.733 97.806,73.277 97.396,73.205 97.396 C 73.134 97.396,73.472 97.806,73.958 98.307 M296.875 97.998 C 296.875 98.043,297.256 98.424,297.721 98.845 L 298.568 99.609 297.803 98.763 C 297.090 97.974,296.875 97.797,296.875 97.998 M75.260 99.300 C 75.260 99.345,75.641 99.726,76.107 100.147 L 76.953 100.911 76.188 100.065 C 75.475 99.276,75.260 99.099,75.260 99.300 M78.646 102.165 C 78.646 102.210,79.027 102.590,79.492 103.011 L 80.339 103.776 79.574 102.930 C 78.861 102.141,78.646 101.964,78.646 102.165 M13.931 206.641 C 13.931 263.932,13.961 287.331,13.997 258.638 C 14.034 229.944,14.034 183.069,13.997 154.471 C 13.961 125.873,13.931 149.349,13.931 206.641 M387.106 142.188 C 387.106 163.457,387.137 172.158,387.174 161.523 C 387.212 150.889,387.212 133.486,387.174 122.852 C 387.137 112.217,387.106 120.918,387.106 142.188 M83.594 106.332 C 83.594 106.403,84.180 106.952,84.896 107.552 C 85.612 108.152,86.198 108.584,86.198 108.512 C 86.198 108.440,85.612 107.891,84.896 107.292 C 84.180 106.692,83.594 106.260,83.594 106.332 M157.873 108.073 C 157.873 108.574,157.927 108.779,157.992 108.529 C 158.058 108.278,158.058 107.868,157.992 107.617 C 157.927 107.367,157.873 107.572,157.873 108.073 M222.196 108.594 C 222.196 109.095,222.249 109.300,222.315 109.049 C 222.380 108.799,222.380 108.389,222.315 108.138 C 222.249 107.887,222.196 108.092,222.196 108.594 M86.458 108.675 C 86.458 108.747,87.044 109.296,87.760 109.896 C 88.477 110.495,89.063 110.927,89.063 110.856 C 89.063 110.784,88.477 110.235,87.760 109.635 C 87.044 109.036,86.458 108.604,86.458 108.675 M157.643 111.719 C 157.643 112.936,157.688 113.434,157.743 112.826 C 157.798 112.217,157.798 111.221,157.743 110.612 C 157.688 110.003,157.643 110.501,157.643 111.719 M222.495 112.891 C 222.496 114.609,222.538 115.279,222.589 114.378 C 222.640 113.477,222.639 112.071,222.588 111.253 C 222.536 110.435,222.495 111.172,222.495 112.891 M308.103 112.643 C 308.087 112.937,307.956 113.318,307.813 113.491 C 307.671 113.663,307.741 113.642,307.969 113.443 C 308.197 113.245,308.327 112.863,308.258 112.596 C 308.146 112.157,308.130 112.162,308.103 112.643 M304.753 114.242 C 305.003 114.308,305.413 114.308,305.664 114.242 C 305.915 114.177,305.710 114.123,305.208 114.123 C 304.707 114.123,304.502 114.177,304.753 114.242 M302.282 114.507 C 302.606 114.569,303.074 114.567,303.323 114.502 C 303.572 114.437,303.307 114.386,302.734 114.389 C 302.161 114.391,301.958 114.445,302.282 114.507 M157.873 115.365 C 157.873 115.866,157.927 116.071,157.992 115.820 C 158.058 115.570,158.058 115.160,157.992 114.909 C 157.927 114.658,157.873 114.863,157.873 115.365 M80.729 118.229 C 81.035 118.659,81.344 119.010,81.416 119.010 C 81.487 119.010,81.296 118.659,80.990 118.229 C 80.684 117.799,80.375 117.448,80.303 117.448 C 80.231 117.448,80.423 117.799,80.729 118.229 M72.005 119.271 C 71.783 119.701,71.660 120.052,71.731 120.052 C 71.803 120.052,72.043 119.701,72.266 119.271 C 72.488 118.841,72.611 118.490,72.539 118.490 C 72.468 118.490,72.227 118.841,72.005 119.271 M336.533 120.505 C 337.362 120.557,338.651 120.557,339.398 120.504 C 340.144 120.452,339.466 120.409,337.891 120.410 C 336.315 120.411,335.704 120.453,336.533 120.505 M351.765 120.504 C 352.377 120.559,353.315 120.558,353.848 120.502 C 354.381 120.446,353.880 120.401,352.734 120.402 C 351.589 120.403,351.152 120.449,351.765 120.504 M332.100 120.760 C 332.496 120.820,333.082 120.818,333.402 120.756 C 333.722 120.694,333.398 120.645,332.682 120.647 C 331.966 120.649,331.704 120.700,332.100 120.760 M70.313 122.396 C 70.020 122.969,69.840 123.438,69.911 123.438 C 69.983 123.438,70.281 122.969,70.573 122.396 C 70.865 121.823,71.046 121.354,70.974 121.354 C 70.903 121.354,70.605 121.823,70.313 122.396 M363.867 124.919 C 364.118 124.985,364.528 124.985,364.779 124.919 C 365.029 124.854,364.824 124.800,364.323 124.800 C 363.822 124.800,363.617 124.854,363.867 124.919 M361.393 125.184 C 361.715 125.246,362.243 125.246,362.565 125.184 C 362.887 125.122,362.624 125.071,361.979 125.071 C 361.335 125.071,361.071 125.122,361.393 125.184 M358.792 125.445 C 359.116 125.507,359.585 125.505,359.834 125.439 C 360.083 125.374,359.818 125.323,359.245 125.326 C 358.672 125.329,358.468 125.382,358.792 125.445 M356.576 125.700 C 356.826 125.766,357.236 125.766,357.487 125.700 C 357.738 125.635,357.533 125.581,357.031 125.581 C 356.530 125.581,356.325 125.635,356.576 125.700 M263.542 126.172 C 263.184 126.377,263.008 126.544,263.151 126.544 C 263.294 126.544,263.704 126.377,264.063 126.172 C 264.421 125.967,264.596 125.800,264.453 125.800 C 264.310 125.800,263.900 125.967,263.542 126.172 M299.674 128.532 C 298.421 129.170,297.396 129.752,297.396 129.823 C 297.396 129.940,302.057 127.688,302.322 127.444 C 302.702 127.093,301.641 127.529,299.674 128.532 M252.539 131.659 C 251.566 132.188,251.625 132.408,252.604 131.901 C 253.034 131.679,253.385 131.441,253.385 131.374 C 253.385 131.206,253.357 131.215,252.539 131.659 M65.146 132.693 C 64.710 133.651,64.793 133.855,65.265 132.985 C 65.485 132.578,65.617 132.197,65.557 132.137 C 65.498 132.078,65.313 132.328,65.146 132.693 M291.338 133.469 C 290.373 134.117,289.583 134.703,289.583 134.773 C 289.583 134.843,290.404 134.355,291.406 133.688 C 293.001 132.627,293.423 132.292,293.161 132.292 C 293.124 132.292,292.304 132.821,291.338 133.469 M332.227 133.350 C 331.117 133.917,330.208 134.440,330.208 134.511 C 330.208 134.628,334.349 132.635,334.614 132.392 C 334.983 132.052,333.970 132.458,332.227 133.350 M213.007 135.091 L 212.109 136.068 213.086 135.170 C 213.623 134.677,214.063 134.237,214.063 134.194 C 214.063 133.995,213.842 134.182,213.007 135.091 M288.411 135.570 L 287.630 136.241 288.477 135.681 C 288.942 135.373,289.323 135.070,289.323 135.008 C 289.323 134.813,289.213 134.881,288.411 135.570 M61.375 141.288 C 60.763 142.571,60.849 142.789,61.489 141.577 C 61.779 141.026,61.971 140.530,61.914 140.473 C 61.858 140.417,61.615 140.784,61.375 141.288 M133.333 141.002 C 133.333 141.074,133.685 141.314,134.115 141.536 C 134.544 141.759,134.896 141.882,134.896 141.810 C 134.896 141.739,134.544 141.498,134.115 141.276 C 133.685 141.054,133.333 140.931,133.333 141.002 M279.673 142.643 L 278.776 143.620 279.753 142.722 C 280.662 141.887,280.849 141.667,280.650 141.667 C 280.607 141.667,280.167 142.106,279.673 142.643 M138.281 143.618 C 138.281 143.793,141.438 145.368,141.554 145.251 C 141.607 145.199,140.892 144.782,139.966 144.325 C 139.039 143.868,138.281 143.550,138.281 143.618 M276.295 145.768 L 274.609 147.526 276.367 145.841 C 278.000 144.276,278.244 144.010,278.052 144.010 C 278.012 144.010,277.221 144.801,276.295 145.768 M188.747 144.724 C 189.648 144.775,191.054 144.775,191.872 144.723 C 192.690 144.672,191.953 144.630,190.234 144.631 C 188.516 144.631,187.846 144.673,188.747 144.724 M270.175 151.888 L 268.359 153.776 270.247 151.960 C 272.001 150.273,272.254 150.000,272.063 150.000 C 272.024 150.000,271.174 150.850,270.175 151.888 M266.913 155.404 L 266.016 156.380 266.992 155.483 C 267.901 154.647,268.088 154.427,267.890 154.427 C 267.846 154.427,267.407 154.867,266.913 155.404 M264.958 157.617 L 264.193 158.464 265.039 157.699 C 265.505 157.278,265.885 156.897,265.885 156.852 C 265.885 156.651,265.671 156.828,264.958 157.617 M190.169 160.346 C 190.706 160.402,191.585 160.402,192.122 160.346 C 192.660 160.290,192.220 160.244,191.146 160.244 C 190.072 160.244,189.632 160.290,190.169 160.346 M198.372 160.345 C 198.838 160.402,199.600 160.402,200.065 160.345 C 200.531 160.287,200.150 160.240,199.219 160.240 C 198.288 160.240,197.907 160.287,198.372 160.345 M252.604 173.438 C 252.298 173.867,252.106 174.219,252.178 174.219 C 252.250 174.219,252.559 173.867,252.865 173.438 C 253.171 173.008,253.362 172.656,253.291 172.656 C 253.219 172.656,252.910 173.008,252.604 173.438 M126.042 176.042 C 126.348 176.471,126.657 176.823,126.728 176.823 C 126.800 176.823,126.608 176.471,126.302 176.042 C 125.996 175.612,125.687 175.260,125.616 175.260 C 125.544 175.260,125.736 175.612,126.042 176.042 M249.533 177.930 C 248.095 180.078,247.708 180.730,248.103 180.339 C 248.518 179.928,251.072 176.042,250.927 176.042 C 250.856 176.042,250.228 176.891,249.533 177.930 M336.797 180.729 C 336.797 181.517,336.846 181.839,336.905 181.445 C 336.965 181.051,336.965 180.407,336.905 180.013 C 336.846 179.619,336.797 179.941,336.797 180.729 M50.321 183.333 C 50.321 183.835,50.374 184.040,50.440 183.789 C 50.505 183.538,50.505 183.128,50.440 182.878 C 50.374 182.627,50.321 182.832,50.321 183.333 M50.066 185.547 C 50.069 186.120,50.122 186.324,50.184 186.000 C 50.246 185.676,50.244 185.207,50.179 184.958 C 50.114 184.709,50.063 184.974,50.066 185.547 M337.578 188.021 C 337.578 188.809,337.627 189.131,337.687 188.737 C 337.746 188.343,337.746 187.699,337.687 187.305 C 337.627 186.911,337.578 187.233,337.578 188.021 M49.818 188.281 C 49.818 189.069,49.866 189.391,49.926 188.997 C 49.986 188.604,49.986 187.959,49.926 187.565 C 49.866 187.171,49.818 187.493,49.818 188.281 M49.599 202.214 C 49.599 208.516,49.633 211.056,49.674 207.860 C 49.716 204.663,49.716 199.507,49.674 196.402 C 49.633 193.296,49.599 195.911,49.599 202.214 M337.875 198.177 C 337.875 202.116,337.911 203.727,337.955 201.758 C 337.999 199.788,337.999 196.566,337.955 194.596 C 337.911 192.627,337.875 194.238,337.875 198.177 M137.109 193.490 C 137.332 193.919,137.572 194.271,137.644 194.271 C 137.715 194.271,137.592 193.919,137.370 193.490 C 137.148 193.060,136.907 192.708,136.836 192.708 C 136.764 192.708,136.887 193.060,137.109 193.490 M138.411 195.833 C 138.634 196.263,138.874 196.615,138.946 196.615 C 139.017 196.615,138.894 196.263,138.672 195.833 C 138.450 195.404,138.209 195.052,138.138 195.052 C 138.066 195.052,138.189 195.404,138.411 195.833 M237.630 197.396 C 237.408 197.826,237.285 198.177,237.356 198.177 C 237.428 198.177,237.668 197.826,237.891 197.396 C 238.113 196.966,238.236 196.615,238.164 196.615 C 238.093 196.615,237.852 196.966,237.630 197.396 M139.714 198.177 C 139.936 198.607,140.176 198.958,140.248 198.958 C 140.319 198.958,140.196 198.607,139.974 198.177 C 139.752 197.747,139.511 197.396,139.440 197.396 C 139.368 197.396,139.491 197.747,139.714 198.177 M236.589 199.219 C 236.366 199.648,236.243 200.000,236.315 200.000 C 236.386 200.000,236.627 199.648,236.849 199.219 C 237.071 198.789,237.194 198.438,237.123 198.438 C 237.051 198.438,236.811 198.789,236.589 199.219 M141.406 201.302 C 141.699 201.875,141.996 202.344,142.068 202.344 C 142.139 202.344,141.959 201.875,141.667 201.302 C 141.374 200.729,141.077 200.260,141.005 200.260 C 140.933 200.260,141.114 200.729,141.406 201.302 M234.896 202.344 C 234.604 202.917,234.423 203.385,234.495 203.385 C 234.566 203.385,234.864 202.917,235.156 202.344 C 235.449 201.771,235.629 201.302,235.557 201.302 C 235.486 201.302,235.188 201.771,234.896 202.344 M143.511 205.599 C 143.511 205.742,143.736 206.270,144.010 206.771 C 144.285 207.272,144.509 207.565,144.509 207.422 C 144.509 207.279,144.285 206.751,144.010 206.250 C 143.736 205.749,143.511 205.456,143.511 205.599 M231.106 209.663 C 230.022 211.827,229.176 213.638,229.226 213.688 C 229.276 213.738,230.220 211.967,231.324 209.754 C 232.428 207.540,233.274 205.729,233.204 205.729 C 233.134 205.729,232.190 207.500,231.106 209.663 M337.588 209.115 C 337.588 210.189,337.634 210.628,337.690 210.091 C 337.746 209.554,337.746 208.675,337.690 208.138 C 337.634 207.601,337.588 208.040,337.588 209.115 M145.071 208.984 C 145.071 209.128,145.238 209.538,145.443 209.896 C 145.647 210.254,145.815 210.430,145.815 210.286 C 145.815 210.143,145.647 209.733,145.443 209.375 C 145.238 209.017,145.071 208.841,145.071 208.984 M337.305 212.891 C 337.308 213.464,337.361 213.667,337.424 213.343 C 337.486 213.019,337.484 212.551,337.419 212.302 C 337.353 212.053,337.302 212.318,337.305 212.891 M49.811 215.625 C 49.811 216.270,49.861 216.533,49.923 216.211 C 49.985 215.889,49.985 215.361,49.923 215.039 C 49.861 214.717,49.811 214.980,49.811 215.625 M227.907 216.287 C 227.471 217.245,227.554 217.449,228.026 216.579 C 228.246 216.172,228.377 215.791,228.318 215.731 C 228.258 215.672,228.073 215.922,227.907 216.287 M226.479 219.413 C 225.867 220.696,225.953 220.914,226.593 219.702 C 226.883 219.151,227.075 218.655,227.019 218.598 C 226.962 218.542,226.719 218.909,226.479 219.413 M225.042 222.537 C 224.606 223.495,224.689 223.699,225.161 222.829 C 225.381 222.422,225.513 222.041,225.453 221.981 C 225.394 221.922,225.209 222.172,225.042 222.537 M221.136 231.652 C 220.700 232.609,220.783 232.814,221.255 231.943 C 221.475 231.537,221.607 231.155,221.547 231.096 C 221.487 231.036,221.303 231.286,221.136 231.652 M153.967 239.844 C 153.967 240.345,154.020 240.550,154.086 240.299 C 154.151 240.049,154.151 239.639,154.086 239.388 C 154.020 239.137,153.967 239.342,153.967 239.844 M154.238 242.188 C 154.238 242.832,154.288 243.096,154.350 242.773 C 154.413 242.451,154.413 241.924,154.350 241.602 C 154.288 241.279,154.238 241.543,154.238 242.188 M154.505 245.313 C 154.505 246.100,154.554 246.423,154.614 246.029 C 154.673 245.635,154.673 244.990,154.614 244.596 C 154.554 244.202,154.505 244.525,154.505 245.313 M154.787 251.432 C 154.787 253.151,154.830 253.820,154.881 252.919 C 154.932 252.019,154.931 250.612,154.880 249.794 C 154.828 248.977,154.786 249.714,154.787 251.432 M59.375 251.920 C 59.375 252.201,60.409 254.167,60.557 254.167 C 60.629 254.167,60.437 253.669,60.130 253.060 C 59.526 251.863,59.375 251.635,59.375 251.920 M61.198 256.085 C 61.198 256.367,62.492 258.854,62.639 258.854 C 62.711 258.854,62.460 258.239,62.082 257.487 C 61.356 256.041,61.198 255.790,61.198 256.085 M154.505 257.292 C 154.505 258.079,154.554 258.402,154.614 258.008 C 154.673 257.614,154.673 256.969,154.614 256.576 C 154.554 256.182,154.505 256.504,154.505 257.292 M322.582 261.600 C 321.478 263.814,320.632 265.625,320.703 265.625 C 320.875 265.625,324.795 257.781,324.680 257.666 C 324.630 257.617,323.686 259.387,322.582 261.600 M63.411 260.417 C 63.634 260.846,63.874 261.198,63.946 261.198 C 64.017 261.198,63.894 260.846,63.672 260.417 C 63.450 259.987,63.209 259.635,63.138 259.635 C 63.066 259.635,63.189 259.987,63.411 260.417 M154.227 260.417 C 154.227 260.918,154.281 261.123,154.346 260.872 C 154.412 260.622,154.412 260.212,154.346 259.961 C 154.281 259.710,154.227 259.915,154.227 260.417 M319.296 267.854 C 318.995 268.364,318.867 268.708,319.012 268.619 C 319.294 268.445,320.139 266.927,319.954 266.927 C 319.893 266.927,319.597 267.344,319.296 267.854 M67.675 267.578 C 67.816 267.865,68.121 268.333,68.355 268.620 L 68.779 269.141 68.523 268.620 C 68.382 268.333,68.076 267.865,67.843 267.578 L 67.419 267.057 67.675 267.578 M316.506 272.461 C 315.609 273.982,315.551 274.112,316.007 273.568 C 316.536 272.938,316.992 272.135,316.821 272.135 C 316.753 272.135,316.611 272.282,316.506 272.461 M387.105 307.161 C 387.105 323.919,387.136 330.736,387.174 322.311 C 387.213 313.885,387.213 300.174,387.174 291.842 C 387.136 283.510,387.105 290.404,387.105 307.161 M77.865 282.031 C 78.318 282.604,78.748 283.073,78.820 283.073 C 78.891 283.073,78.579 282.604,78.125 282.031 C 77.671 281.458,77.241 280.990,77.170 280.990 C 77.098 280.990,77.411 281.458,77.865 282.031 M202.268 286.337 C 201.739 287.406,201.363 288.281,201.431 288.281 C 201.605 288.281,203.441 284.604,203.324 284.488 C 203.273 284.436,202.797 285.268,202.268 286.337 M81.981 286.914 C 82.698 287.738,83.669 288.763,84.139 289.193 C 84.609 289.622,84.068 288.949,82.936 287.695 C 80.634 285.146,79.966 284.599,81.981 286.914 M200.130 290.365 C 199.908 290.794,199.785 291.146,199.856 291.146 C 199.928 291.146,200.168 290.794,200.391 290.365 C 200.613 289.935,200.736 289.583,200.664 289.583 C 200.593 289.583,200.352 289.935,200.130 290.365 M87.891 293.229 C 89.605 294.948,91.066 296.354,91.138 296.354 C 91.209 296.354,89.865 294.948,88.151 293.229 C 86.437 291.510,84.976 290.104,84.904 290.104 C 84.832 290.104,86.176 291.510,87.891 293.229 M144.661 291.146 C 144.439 291.576,144.316 291.927,144.388 291.927 C 144.459 291.927,144.700 291.576,144.922 291.146 C 145.144 290.716,145.267 290.365,145.196 290.365 C 145.124 290.365,144.884 290.716,144.661 291.146 M302.458 291.732 L 301.693 292.578 302.539 291.813 C 303.328 291.100,303.505 290.885,303.304 290.885 C 303.259 290.885,302.878 291.266,302.458 291.732 M300.378 294.076 L 299.349 295.182 300.456 294.153 C 301.485 293.196,301.682 292.969,301.485 292.969 C 301.443 292.969,300.945 293.467,300.378 294.076 M297.388 297.331 L 295.703 299.089 297.461 297.403 C 299.094 295.838,299.338 295.573,299.146 295.573 C 299.106 295.573,298.315 296.364,297.388 297.331 M92.969 298.047 C 93.747 298.835,94.442 299.479,94.513 299.479 C 94.585 299.479,94.007 298.835,93.229 298.047 C 92.451 297.259,91.756 296.615,91.684 296.615 C 91.613 296.615,92.191 297.259,92.969 298.047 M96.094 300.911 C 96.580 301.413,97.036 301.823,97.107 301.823 C 97.179 301.823,96.840 301.413,96.354 300.911 C 95.868 300.410,95.412 300.000,95.341 300.000 C 95.269 300.000,95.608 300.410,96.094 300.911 M138.281 301.302 C 137.975 301.732,137.784 302.083,137.855 302.083 C 137.927 302.083,138.236 301.732,138.542 301.302 C 138.848 300.872,139.039 300.521,138.968 300.521 C 138.896 300.521,138.587 300.872,138.281 301.302 M97.656 302.165 C 97.656 302.210,98.037 302.590,98.503 303.011 L 99.349 303.776 98.584 302.930 C 97.871 302.141,97.656 301.964,97.656 302.165 M136.439 303.841 C 135.821 304.665,135.490 305.197,135.704 305.025 C 136.142 304.671,137.856 302.344,137.678 302.344 C 137.614 302.344,137.057 303.018,136.439 303.841 M290.226 304.492 L 288.672 306.120 290.299 304.565 C 291.811 303.122,292.046 302.865,291.854 302.865 C 291.814 302.865,291.081 303.597,290.226 304.492 M188.139 306.836 L 187.109 307.943 188.216 306.913 C 188.825 306.347,189.323 305.849,189.323 305.807 C 189.323 305.609,189.096 305.807,188.139 306.836 M286.965 307.487 L 286.068 308.464 287.044 307.566 C 287.953 306.731,288.141 306.510,287.942 306.510 C 287.898 306.510,287.459 306.950,286.965 307.487 M133.447 307.617 L 132.682 308.464 133.529 307.699 C 133.994 307.278,134.375 306.897,134.375 306.852 C 134.375 306.651,134.160 306.828,133.447 307.617 M131.757 309.570 L 130.859 310.547 131.836 309.649 C 132.745 308.814,132.932 308.594,132.733 308.594 C 132.690 308.594,132.250 309.033,131.757 309.570 M183.464 311.719 C 181.749 313.438,180.405 314.844,180.477 314.844 C 180.549 314.844,182.010 313.438,183.724 311.719 C 185.438 310.000,186.782 308.594,186.711 308.594 C 186.639 308.594,185.178 310.000,183.464 311.719 M108.546 311.151 C 109.576 312.063,111.719 313.622,111.719 313.459 C 111.719 313.396,110.811 312.679,109.701 311.866 C 108.590 311.052,108.071 310.731,108.546 311.151 M127.083 314.383 C 125.436 315.977,124.909 316.566,125.911 315.693 C 127.712 314.124,130.432 311.446,130.199 311.472 C 130.132 311.479,128.730 312.789,127.083 314.383 M111.979 313.636 C 111.979 313.708,112.331 314.017,112.760 314.323 C 113.190 314.629,113.542 314.821,113.542 314.749 C 113.542 314.677,113.190 314.368,112.760 314.063 C 112.331 313.757,111.979 313.565,111.979 313.636 M114.583 315.470 C 114.583 315.541,115.111 315.963,115.755 316.406 C 116.400 316.850,116.927 317.154,116.927 317.082 C 116.927 317.011,116.400 316.589,115.755 316.146 C 115.111 315.702,114.583 315.398,114.583 315.470 M178.760 316.211 L 177.995 317.057 178.841 316.292 C 179.307 315.872,179.688 315.491,179.688 315.446 C 179.688 315.245,179.473 315.422,178.760 316.211 M275.130 316.820 L 274.349 317.491 275.195 316.931 C 275.661 316.623,276.042 316.320,276.042 316.258 C 276.042 316.063,275.931 316.131,275.130 316.820 M118.750 318.346 C 118.750 319.166,121.346 319.457,122.172 318.729 L 122.786 318.187 122.143 318.599 C 121.332 319.117,120.501 319.121,119.518 318.613 C 119.096 318.395,118.750 318.274,118.750 318.346 M271.680 319.040 C 270.792 319.609,270.505 319.991,271.289 319.559 C 271.887 319.231,272.823 318.507,272.656 318.502 C 272.585 318.500,272.145 318.742,271.680 319.040 M263.997 323.586 C 263.024 324.115,263.083 324.335,264.063 323.828 C 264.492 323.606,264.844 323.369,264.844 323.301 C 264.844 323.133,264.816 323.142,263.997 323.586 M259.115 326.172 C 257.611 326.945,256.470 327.583,256.580 327.591 C 256.857 327.609,261.979 325.025,261.979 324.867 C 261.979 324.690,262.139 324.617,259.115 326.172 M164.897 326.674 C 163.687 327.530,163.517 327.774,164.538 327.189 C 165.015 326.916,165.527 326.546,165.677 326.367 C 166.062 325.907,165.881 325.978,164.897 326.674 M14.184 339.844 C 14.184 347.363,14.217 350.439,14.258 346.680 C 14.298 342.920,14.298 336.768,14.258 333.008 C 14.217 329.248,14.184 332.324,14.184 339.844 M253.646 328.776 C 253.288 328.981,253.112 329.148,253.255 329.148 C 253.398 329.148,253.809 328.981,254.167 328.776 C 254.525 328.571,254.701 328.404,254.557 328.404 C 254.414 328.404,254.004 328.571,253.646 328.776 M152.018 334.393 C 151.481 334.676,151.042 334.966,151.042 335.038 C 151.042 335.109,151.510 334.928,152.083 334.635 C 152.656 334.343,153.125 334.048,153.125 333.979 C 153.125 333.809,153.123 333.809,152.018 334.393 M145.833 337.500 C 145.332 337.774,145.039 337.999,145.182 337.999 C 145.326 337.999,145.853 337.774,146.354 337.500 C 146.855 337.226,147.148 337.001,147.005 337.001 C 146.862 337.001,146.335 337.226,145.833 337.500 M142.708 338.932 C 142.350 339.137,142.174 339.304,142.318 339.304 C 142.461 339.304,142.871 339.137,143.229 338.932 C 143.587 338.728,143.763 338.560,143.620 338.560 C 143.477 338.560,143.066 338.728,142.708 338.932 M205.407 341.590 C 205.731 341.653,206.199 341.650,206.448 341.585 C 206.697 341.520,206.432 341.469,205.859 341.472 C 205.286 341.475,205.083 341.528,205.407 341.590 M202.412 341.854 C 202.808 341.913,203.394 341.912,203.715 341.850 C 204.035 341.788,203.711 341.739,202.995 341.741 C 202.279 341.743,202.017 341.794,202.412 341.854 M176.302 342.318 C 175.452 342.804,175.749 342.809,176.858 342.328 C 177.340 342.119,177.559 341.947,177.344 341.947 C 177.129 341.946,176.660 342.113,176.302 342.318 M198.372 342.115 C 198.838 342.173,199.600 342.173,200.065 342.115 C 200.531 342.058,200.150 342.010,199.219 342.010 C 198.288 342.010,197.907 342.058,198.372 342.115 M180.281 342.379 C 180.966 342.433,182.021 342.432,182.625 342.378 C 183.229 342.323,182.669 342.279,181.380 342.280 C 180.091 342.281,179.597 342.325,180.281 342.379 M192.383 342.379 C 193.135 342.432,194.365 342.432,195.117 342.379 C 195.869 342.327,195.254 342.284,193.750 342.284 C 192.246 342.284,191.631 342.327,192.383 342.379 M172.656 344.010 C 172.155 344.285,171.862 344.509,172.005 344.509 C 172.148 344.509,172.676 344.285,173.177 344.010 C 173.678 343.736,173.971 343.511,173.828 343.511 C 173.685 343.511,173.158 343.736,172.656 344.010 M386.834 354.427 C 386.834 358.652,386.870 360.381,386.914 358.268 C 386.957 356.156,386.957 352.699,386.914 350.586 C 386.870 348.473,386.834 350.202,386.834 354.427 M110.685 348.427 C 110.065 348.819,110.488 348.902,111.198 348.528 C 111.557 348.339,111.674 348.185,111.458 348.185 C 111.243 348.185,110.895 348.294,110.685 348.427 M114.909 349.919 C 115.160 349.985,115.570 349.985,115.820 349.919 C 116.071 349.854,115.866 349.800,115.365 349.800 C 114.863 349.800,114.658 349.854,114.909 349.919 M117.383 350.184 C 117.705 350.246,118.232 350.246,118.555 350.184 C 118.877 350.122,118.613 350.071,117.969 350.071 C 117.324 350.071,117.061 350.122,117.383 350.184 M120.512 350.449 C 120.981 350.507,121.684 350.506,122.075 350.446 C 122.466 350.387,122.083 350.340,121.224 350.341 C 120.365 350.343,120.044 350.391,120.512 350.449 M150.198 350.445 C 150.522 350.507,150.991 350.505,151.240 350.439 C 151.489 350.374,151.224 350.323,150.651 350.326 C 150.078 350.329,149.874 350.382,150.198 350.445 M124.813 350.713 C 125.497 350.766,126.552 350.766,127.156 350.711 C 127.761 350.657,127.201 350.612,125.911 350.613 C 124.622 350.614,124.128 350.659,124.813 350.713 M146.283 350.709 C 146.746 350.766,147.566 350.767,148.106 350.711 C 148.646 350.655,148.268 350.607,147.266 350.606 C 146.263 350.605,145.821 350.651,146.283 350.709 M133.643 350.976 C 135.461 351.020,138.508 351.021,140.414 350.976 C 142.321 350.931,140.833 350.895,137.109 350.895 C 133.385 350.895,131.826 350.931,133.643 350.976 M14.425 361.979 C 14.425 363.913,14.466 364.704,14.516 363.737 C 14.566 362.770,14.566 361.188,14.516 360.221 C 14.466 359.255,14.425 360.046,14.425 361.979 M386.519 365.104 C 386.519 365.605,386.572 365.811,386.638 365.560 C 386.703 365.309,386.703 364.899,386.638 364.648 C 386.572 364.398,386.519 364.603,386.519 365.104 M16.667 371.972 C 16.667 372.253,17.701 374.219,17.849 374.219 C 17.921 374.219,17.728 373.721,17.421 373.112 C 16.818 371.915,16.667 371.687,16.667 371.972 M21.094 378.988 C 21.094 379.033,21.475 379.413,21.940 379.834 L 22.786 380.599 22.022 379.753 C 21.309 378.964,21.094 378.787,21.094 378.988 M377.865 381.120 C 377.232 381.764,376.773 382.292,376.845 382.292 C 376.916 382.292,377.492 381.764,378.125 381.120 C 378.758 380.475,379.217 379.948,379.145 379.948 C 379.073 379.948,378.497 380.475,377.865 381.120 M23.958 381.901 C 24.444 382.402,24.900 382.813,24.972 382.813 C 25.044 382.813,24.705 382.402,24.219 381.901 C 23.733 381.400,23.277 380.990,23.205 380.990 C 23.134 380.990,23.472 381.400,23.958 381.901 M43.570 389.778 C 45.548 389.822,48.712 389.822,50.602 389.778 C 52.491 389.733,50.872 389.697,47.005 389.697 C 43.138 389.697,41.592 389.734,43.570 389.778 M71.569 390.039 C 76.771 390.078,85.209 390.078,90.319 390.039 C 95.429 389.999,91.172 389.967,80.859 389.967 C 70.547 389.967,66.366 390.000,71.569 390.039 M354.765 390.038 C 356.026 390.086,358.018 390.085,359.192 390.037 C 360.367 389.989,359.336 389.950,356.901 389.950 C 354.466 389.951,353.505 389.990,354.765 390.038 M174.544 390.299 C 205.732 390.336,256.768 390.336,287.956 390.299 C 319.144 390.263,293.626 390.233,231.250 390.233 C 168.874 390.233,143.356 390.263,174.544 390.299 " stroke="none" fill="#2eb4e5" fill-rule="evenodd"></path><path id="path3" d="M273.177 148.568 C 272.545 149.212,272.086 149.740,272.157 149.740 C 272.229 149.740,272.805 149.212,273.438 148.568 C 274.070 147.923,274.529 147.396,274.457 147.396 C 274.386 147.396,273.810 147.923,273.177 148.568 M294.132 300.846 L 292.578 302.474 294.206 300.920 C 295.718 299.476,295.952 299.219,295.760 299.219 C 295.720 299.219,294.987 299.951,294.132 300.846 " stroke="none" fill="#20b2e4" fill-rule="evenodd"></path><path id="path4" d="M294.010 94.922 C 294.788 95.710,295.484 96.354,295.555 96.354 C 295.627 96.354,295.049 95.710,294.271 94.922 C 293.493 94.134,292.798 93.490,292.726 93.490 C 292.655 93.490,293.232 94.134,294.010 94.922 " stroke="none" fill="#0ca4e4" fill-rule="evenodd"></path></g></svg>